<mxfile host="app.diagrams.net" modified="2023-05-28T14:15:40.980Z" agent="Mozilla/5.0 (Windows NT 10.0; Win64; x64) AppleWebKit/537.36 (KHTML, like Gecko) Chrome/113.0.0.0 Safari/537.36" etag="eKvbGkl_QoVstskrdYrd" version="21.3.5" type="device">
  <diagram name="Page-1" id="vjiPZoaDAhRvJK3hs4QS">
    <mxGraphModel dx="1955" dy="578" grid="1" gridSize="10" guides="1" tooltips="1" connect="1" arrows="1" fold="1" page="1" pageScale="1" pageWidth="850" pageHeight="1100" math="0" shadow="0">
      <root>
        <mxCell id="0" />
        <mxCell id="1" parent="0" />
        <mxCell id="RmF1gku8fQ2_ZBArnDE5-35" value="" style="shape=folder;fontStyle=1;spacingTop=10;tabWidth=90;tabHeight=30;tabPosition=left;html=1;whiteSpace=wrap;" vertex="1" parent="1">
          <mxGeometry x="-350" y="750" width="220" height="196" as="geometry" />
        </mxCell>
        <mxCell id="RmF1gku8fQ2_ZBArnDE5-32" value="" style="shape=folder;fontStyle=1;spacingTop=10;tabWidth=140;tabHeight=20;tabPosition=left;html=1;whiteSpace=wrap;" vertex="1" parent="1">
          <mxGeometry x="-220" width="720" height="80" as="geometry" />
        </mxCell>
        <mxCell id="6uhysWcisIVeWNrSJ3Zi-1" value="&lt;p style=&quot;margin:0px;margin-top:4px;text-align:center;&quot;&gt;&lt;b&gt;&amp;lt;class&amp;gt;&lt;/b&gt;&lt;/p&gt;&lt;p style=&quot;margin:0px;margin-top:4px;text-align:center;&quot;&gt;&lt;b&gt;ChooseAdapter&lt;/b&gt;&lt;/p&gt;&lt;hr size=&quot;1&quot;&gt;&lt;p style=&quot;margin:0px;margin-left:4px;&quot;&gt;- context: Context&lt;/p&gt;&lt;p style=&quot;margin:0px;margin-left:4px;&quot;&gt;- stbs: ArrayList&amp;lt;Stb&amp;gt;&lt;/p&gt;&lt;p style=&quot;margin:0px;margin-left:4px;&quot;&gt;- clickedListener: OnItemClickedListener&lt;/p&gt;&lt;hr size=&quot;1&quot;&gt;&lt;p style=&quot;margin:0px;margin-left:4px;&quot;&gt;+ onCreateViewHolder(parent: ViewGroup, viewType: int): ChooseViewHolder&lt;/p&gt;&lt;p style=&quot;margin:0px;margin-left:4px;&quot;&gt;+ onBindViewHolder(holder: ChooseViewHolder, position: int): void&lt;/p&gt;&lt;p style=&quot;margin:0px;margin-left:4px;&quot;&gt;+ getItemCount(): int&lt;/p&gt;&lt;p style=&quot;margin:0px;margin-left:4px;&quot;&gt;+ registerClickListener(clickListener: OnItemClickedListener): void&lt;/p&gt;&lt;p style=&quot;margin:0px;margin-left:4px;&quot;&gt;+ refresh(stbs: ArrayList&amp;lt;Stb&amp;gt;): void&lt;/p&gt;&lt;p style=&quot;margin:0px;margin-left:4px;&quot;&gt;&lt;br&gt;&lt;/p&gt;" style="verticalAlign=top;align=left;overflow=fill;fontSize=12;fontFamily=Helvetica;html=1;whiteSpace=wrap;" parent="1" vertex="1">
          <mxGeometry x="95" y="150" width="440" height="200" as="geometry" />
        </mxCell>
        <mxCell id="6uhysWcisIVeWNrSJ3Zi-2" value="&lt;p style=&quot;margin:0px;margin-top:4px;text-align:center;&quot;&gt;&lt;b&gt;&amp;lt;class&amp;gt;&lt;/b&gt;&lt;/p&gt;&lt;p style=&quot;margin:0px;margin-top:4px;text-align:center;&quot;&gt;&lt;b&gt;ChooseViewHolder&lt;/b&gt;&lt;/p&gt;&lt;hr size=&quot;1&quot;&gt;&lt;p style=&quot;margin:0px;margin-left:4px;&quot;&gt;- root: View&lt;/p&gt;&lt;p style=&quot;margin:0px;margin-left:4px;&quot;&gt;- tv: TextView&lt;/p&gt;&lt;hr size=&quot;1&quot;&gt;&lt;p style=&quot;margin:0px;margin-left:4px;&quot;&gt;- getNameView(): TextView&lt;/p&gt;&lt;p style=&quot;margin:0px;margin-left:4px;&quot;&gt;+ getRoot(): View&lt;/p&gt;" style="verticalAlign=top;align=left;overflow=fill;fontSize=12;fontFamily=Helvetica;html=1;whiteSpace=wrap;" parent="1" vertex="1">
          <mxGeometry x="690" y="140" width="160" height="200" as="geometry" />
        </mxCell>
        <mxCell id="6uhysWcisIVeWNrSJ3Zi-4" value="&lt;p style=&quot;margin:0px;margin-top:4px;text-align:center;&quot;&gt;&lt;b&gt;&amp;lt;class&amp;gt;&lt;/b&gt;&lt;/p&gt;&lt;p style=&quot;margin:0px;margin-top:4px;text-align:center;&quot;&gt;&lt;b&gt;DiscoveryHandler&lt;/b&gt;&lt;/p&gt;&lt;hr size=&quot;1&quot;&gt;&lt;p style=&quot;margin:0px;margin-left:4px;&quot;&gt;- nsdDiscover: NsdDiscover&lt;/p&gt;&lt;p style=&quot;margin:0px;margin-left:4px;&quot;&gt;- stbList: ArrayList&amp;lt;Stb&amp;gt;&lt;/p&gt;&lt;hr size=&quot;1&quot;&gt;&lt;p style=&quot;margin:0px;margin-left:4px;&quot;&gt;+ getStbList(receiver: AsyncDataReceiver): void&lt;/p&gt;&lt;p style=&quot;margin:0px;margin-left:4px;&quot;&gt;+ startDiscovery()&lt;/p&gt;&lt;p style=&quot;margin:0px;margin-left:4px;&quot;&gt;+ stopDiscovery()&lt;/p&gt;" style="verticalAlign=top;align=left;overflow=fill;fontSize=12;fontFamily=Helvetica;html=1;whiteSpace=wrap;" parent="1" vertex="1">
          <mxGeometry x="620" y="785" width="310" height="170" as="geometry" />
        </mxCell>
        <mxCell id="6uhysWcisIVeWNrSJ3Zi-5" value="&lt;p style=&quot;margin:0px;margin-top:4px;text-align:center;&quot;&gt;&lt;b&gt;&amp;lt;class&amp;gt;&lt;/b&gt;&lt;/p&gt;&lt;p style=&quot;margin:0px;margin-top:4px;text-align:center;&quot;&gt;&lt;b&gt;NsdDiscover&lt;/b&gt;&lt;/p&gt;&lt;hr size=&quot;1&quot;&gt;&lt;p style=&quot;margin:0px;margin-left:4px;&quot;&gt;- NSD_SERVICE_TYPE: String&lt;/p&gt;&lt;p style=&quot;margin:0px;margin-left:4px;&quot;&gt;- mContext: Context&lt;/p&gt;&lt;p style=&quot;margin:0px;margin-left:4px;&quot;&gt;- mNsdManager: NsdManager&lt;/p&gt;&lt;p style=&quot;margin:0px;margin-left:4px;&quot;&gt;- mDiscoveryListener: NsdManager.DiscoveryListener&lt;/p&gt;&lt;hr size=&quot;1&quot;&gt;&lt;p style=&quot;margin:0px;margin-left:4px;&quot;&gt;- initializeDiscoveryListener(): NsdManager.DiscoveryListener&lt;/p&gt;&lt;p style=&quot;margin:0px;margin-left:4px;&quot;&gt;- initializeResolveListener(): NsdManager.ResolveListener&lt;/p&gt;&lt;p style=&quot;margin:0px;margin-left:4px;&quot;&gt;+ tearDown(): void&lt;/p&gt;&lt;p style=&quot;margin:0px;margin-left:4px;&quot;&gt;+ startDiscovery(): void&lt;/p&gt;&lt;p style=&quot;margin:0px;margin-left:4px;&quot;&gt;+ stopDisocovery(): void&lt;/p&gt;&lt;p style=&quot;margin:0px;margin-left:4px;&quot;&gt;+ onDiscover(service: NsdServiceInfo): void&lt;/p&gt;" style="verticalAlign=top;align=left;overflow=fill;fontSize=12;fontFamily=Helvetica;html=1;whiteSpace=wrap;" parent="1" vertex="1">
          <mxGeometry x="55" y="765" width="350" height="210" as="geometry" />
        </mxCell>
        <mxCell id="6uhysWcisIVeWNrSJ3Zi-7" value="&lt;p style=&quot;margin:0px;margin-top:4px;text-align:center;&quot;&gt;&lt;b&gt;&amp;lt;class&amp;gt;&lt;/b&gt;&lt;/p&gt;&lt;p style=&quot;margin:0px;margin-top:4px;text-align:center;&quot;&gt;&lt;b&gt;Stb&lt;/b&gt;&lt;/p&gt;&lt;hr size=&quot;1&quot;&gt;&lt;p style=&quot;margin:0px;margin-left:4px;&quot;&gt;- id: int&lt;/p&gt;&lt;p style=&quot;margin:0px;margin-left:4px;&quot;&gt;- serviceName: String&lt;/p&gt;&lt;p style=&quot;margin:0px;margin-left:4px;&quot;&gt;- serviceType: String&lt;/p&gt;&lt;p style=&quot;margin:0px;margin-left:4px;&quot;&gt;- host: InetAddress&lt;/p&gt;&lt;p style=&quot;margin:0px;margin-left:4px;&quot;&gt;- port: int&lt;/p&gt;&lt;hr size=&quot;1&quot;&gt;&lt;p style=&quot;margin:0px;margin-left:4px;&quot;&gt;+ getId(): int&lt;/p&gt;&lt;p style=&quot;margin:0px;margin-left:4px;&quot;&gt;+ getServiceName(): String&lt;/p&gt;&lt;p style=&quot;margin:0px;margin-left:4px;&quot;&gt;+ getHost(): InetAddress&lt;/p&gt;&lt;p style=&quot;margin:0px;margin-left:4px;&quot;&gt;+ getPort(): int&lt;/p&gt;" style="verticalAlign=top;align=left;overflow=fill;fontSize=12;fontFamily=Helvetica;html=1;whiteSpace=wrap;" parent="1" vertex="1">
          <mxGeometry x="695" y="410" width="160" height="260" as="geometry" />
        </mxCell>
        <mxCell id="RmF1gku8fQ2_ZBArnDE5-1" value="&lt;p style=&quot;margin:0px;margin-top:4px;text-align:center;&quot;&gt;&lt;b&gt;&amp;lt;class&amp;gt;&lt;/b&gt;&lt;/p&gt;&lt;p style=&quot;margin:0px;margin-top:4px;text-align:center;&quot;&gt;&lt;b&gt;ChooseConnection&lt;/b&gt;&lt;/p&gt;&lt;hr size=&quot;1&quot;&gt;&lt;p style=&quot;margin:0px;margin-left:4px;&quot;&gt;&lt;span style=&quot;background-color: initial;&quot;&gt;-&amp;nbsp; APP_CONNECTED_CODE: int&lt;/span&gt;&lt;br&gt;&lt;/p&gt;&lt;p style=&quot;margin:0px;margin-left:4px;&quot;&gt;- REMOVE_PAIRING_SCENE_CODE: int&lt;/p&gt;&lt;p style=&quot;margin:0px;margin-left:4px;&quot;&gt;- &lt;u&gt;PAIR_COMMAND&lt;/u&gt;: int&lt;/p&gt;&lt;p style=&quot;margin:0px;margin-left:4px;&quot;&gt;- stbs: RecyclerView&lt;/p&gt;&lt;p style=&quot;margin:0px;margin-left:4px;&quot;&gt;- progressDialog: ProgressDialog&lt;/p&gt;&lt;p style=&quot;margin:0px;margin-left:4px;&quot;&gt;- enterCodeContainer: RelativeLayout&lt;/p&gt;&lt;p style=&quot;margin:0px;margin-left:4px;&quot;&gt;- enterCode: EditText&lt;/p&gt;&lt;p style=&quot;margin:0px;margin-left:4px;&quot;&gt;&lt;span style=&quot;background-color: initial;&quot;&gt;- items: ArrayList&amp;lt;Stb&amp;gt;&lt;/span&gt;&lt;/p&gt;&lt;p style=&quot;margin:0px;margin-left:4px;&quot;&gt;&lt;span style=&quot;background-color: initial;&quot;&gt;- isFound: boolean&lt;/span&gt;&lt;/p&gt;&lt;p style=&quot;margin:0px;margin-left:4px;&quot;&gt;- isEnterShown: boolean&lt;/p&gt;&lt;p style=&quot;margin:0px;margin-left:4px;&quot;&gt;- vibrator: Vibrator&lt;/p&gt;&lt;p style=&quot;margin:0px;margin-left:4px;&quot;&gt;- selectedHostAddress: String&lt;/p&gt;&lt;p style=&quot;margin:0px;margin-left:4px;&quot;&gt;- shouldLoadDevice: boolean&lt;/p&gt;&lt;p style=&quot;margin:0px;margin-left:4px;&quot;&gt;- cAdapter: ChooseAdapter&lt;/p&gt;&lt;p style=&quot;margin:0px;margin-left:4px;&quot;&gt;- firstTimePermissionCheck: boolean&lt;br&gt;&lt;/p&gt;&lt;hr size=&quot;1&quot;&gt;&lt;p style=&quot;margin:0px;margin-left:4px;&quot;&gt;&lt;span style=&quot;background-color: initial;&quot;&gt;# onCreate(savedInstanceState: Bundle) : void&lt;/span&gt;&lt;br&gt;&lt;/p&gt;&amp;nbsp;- showMessageOkCancel(okListener: DialogInterface.OnClickListener): void&lt;br&gt;&lt;span style=&quot;background-color: initial;&quot;&gt;&amp;nbsp;- saveServer(selecterHostAddress: String): void&lt;br&gt;&amp;nbsp;- isServerInSharedPrefs(serverHostAddress: String): boolean&lt;br&gt;&lt;/span&gt;&lt;span style=&quot;background-color: initial;&quot;&gt;&amp;nbsp;- enterCode(): void&lt;br&gt;&amp;nbsp;- loadDevice(): void&lt;br&gt;&amp;nbsp;- openRemoteView(): void&lt;br&gt;&amp;nbsp;- createDialog(): void&lt;br&gt;&amp;nbsp;# onResume(): void&lt;br&gt;&amp;nbsp;+ onBackPressed(): void&lt;br&gt;&amp;nbsp;+ onPause()&lt;br&gt;&amp;nbsp;+ onDestroy()&lt;br&gt;&lt;/span&gt;" style="verticalAlign=top;align=left;overflow=fill;fontSize=12;fontFamily=Helvetica;html=1;whiteSpace=wrap;" vertex="1" parent="1">
          <mxGeometry x="-480" y="190" width="430" height="460" as="geometry" />
        </mxCell>
        <mxCell id="RmF1gku8fQ2_ZBArnDE5-2" value="&lt;p style=&quot;margin:0px;margin-top:4px;text-align:center;&quot;&gt;&lt;b&gt;&amp;lt;class&amp;gt;&lt;/b&gt;&lt;/p&gt;&lt;p style=&quot;margin:0px;margin-top:4px;text-align:center;&quot;&gt;&lt;b&gt;ConnectToStb&amp;nbsp;&lt;/b&gt;&lt;br&gt;&lt;/p&gt;&lt;hr size=&quot;1&quot;&gt;&lt;p style=&quot;margin:0px;margin-left:4px;&quot;&gt;# doInBackground(objects: Object[]): Object&lt;/p&gt;&lt;p style=&quot;margin:0px;margin-left:4px;&quot;&gt;&lt;br&gt;&lt;/p&gt;" style="verticalAlign=top;align=left;overflow=fill;fontSize=12;fontFamily=Helvetica;html=1;whiteSpace=wrap;" vertex="1" parent="1">
          <mxGeometry x="-770" y="190" width="260" height="100" as="geometry" />
        </mxCell>
        <mxCell id="RmF1gku8fQ2_ZBArnDE5-13" value="&lt;p style=&quot;margin:0px;margin-top:4px;text-align:center;&quot;&gt;&lt;b&gt;&amp;lt;class&amp;gt;&lt;/b&gt;&lt;/p&gt;&lt;p style=&quot;margin:0px;margin-top:4px;text-align:center;&quot;&gt;&lt;b&gt;&amp;nbsp;androidx.appcompat.app.AppCompatActivity&lt;/b&gt;&lt;br&gt;&lt;/p&gt;&lt;p style=&quot;margin:0px;margin-left:4px;&quot;&gt;&lt;br&gt;&lt;/p&gt;" style="verticalAlign=top;align=left;overflow=fill;fontSize=12;fontFamily=Helvetica;html=1;whiteSpace=wrap;" vertex="1" parent="1">
          <mxGeometry x="-200" y="30" width="310" height="40" as="geometry" />
        </mxCell>
        <mxCell id="RmF1gku8fQ2_ZBArnDE5-15" value="Extends" style="endArrow=block;endSize=16;endFill=0;html=1;rounded=0;exitX=0.5;exitY=0;exitDx=0;exitDy=0;entryX=0.5;entryY=1;entryDx=0;entryDy=0;" edge="1" parent="1" source="RmF1gku8fQ2_ZBArnDE5-1" target="RmF1gku8fQ2_ZBArnDE5-13">
          <mxGeometry width="160" relative="1" as="geometry">
            <mxPoint x="-200" y="110" as="sourcePoint" />
            <mxPoint x="-40" y="110" as="targetPoint" />
            <Array as="points" />
          </mxGeometry>
        </mxCell>
        <mxCell id="RmF1gku8fQ2_ZBArnDE5-16" value="" style="shape=folder;fontStyle=1;spacingTop=10;tabWidth=110;tabHeight=20;tabPosition=left;html=1;whiteSpace=wrap;" vertex="1" parent="1">
          <mxGeometry x="-325" y="810" width="130" height="120" as="geometry" />
        </mxCell>
        <mxCell id="RmF1gku8fQ2_ZBArnDE5-20" value="android.net.nsd" style="text;align=center;fontStyle=1;verticalAlign=middle;spacingLeft=3;spacingRight=3;strokeColor=none;rotatable=0;points=[[0,0.5],[1,0.5]];portConstraint=eastwest;html=1;" vertex="1" parent="1">
          <mxGeometry x="-315" y="810" width="80" height="26" as="geometry" />
        </mxCell>
        <mxCell id="RmF1gku8fQ2_ZBArnDE5-22" value="NsdManager" style="html=1;whiteSpace=wrap;" vertex="1" parent="1">
          <mxGeometry x="-315" y="840" width="110" height="30" as="geometry" />
        </mxCell>
        <mxCell id="RmF1gku8fQ2_ZBArnDE5-23" value="NsdServiceInfo" style="html=1;whiteSpace=wrap;" vertex="1" parent="1">
          <mxGeometry x="-315" y="880" width="110" height="30" as="geometry" />
        </mxCell>
        <mxCell id="RmF1gku8fQ2_ZBArnDE5-25" value="Use" style="endArrow=open;endSize=12;dashed=1;html=1;rounded=0;entryX=0.5;entryY=1;entryDx=0;entryDy=0;exitX=0;exitY=0.5;exitDx=0;exitDy=0;" edge="1" parent="1" source="RmF1gku8fQ2_ZBArnDE5-1" target="RmF1gku8fQ2_ZBArnDE5-2">
          <mxGeometry width="160" relative="1" as="geometry">
            <mxPoint x="-310" y="420" as="sourcePoint" />
            <mxPoint x="-150" y="420" as="targetPoint" />
          </mxGeometry>
        </mxCell>
        <mxCell id="RmF1gku8fQ2_ZBArnDE5-26" value="" style="shape=folder;fontStyle=1;spacingTop=10;tabWidth=110;tabHeight=20;tabPosition=left;html=1;whiteSpace=wrap;" vertex="1" parent="1">
          <mxGeometry x="1010" y="506" width="180" height="90" as="geometry" />
        </mxCell>
        <mxCell id="RmF1gku8fQ2_ZBArnDE5-27" value="java.net" style="text;align=center;fontStyle=1;verticalAlign=middle;spacingLeft=3;spacingRight=3;strokeColor=none;rotatable=0;points=[[0,0.5],[1,0.5]];portConstraint=eastwest;html=1;" vertex="1" parent="1">
          <mxGeometry x="1020" y="506" width="80" height="26" as="geometry" />
        </mxCell>
        <mxCell id="RmF1gku8fQ2_ZBArnDE5-28" value="InetAddress" style="html=1;whiteSpace=wrap;" vertex="1" parent="1">
          <mxGeometry x="1020" y="536" width="110" height="30" as="geometry" />
        </mxCell>
        <mxCell id="RmF1gku8fQ2_ZBArnDE5-30" value="&lt;p style=&quot;margin:0px;margin-top:4px;text-align:center;&quot;&gt;&lt;b&gt;&amp;lt;class&amp;gt;&lt;/b&gt;&lt;/p&gt;&lt;p style=&quot;margin:0px;margin-top:4px;text-align:center;&quot;&gt;&lt;b&gt;&amp;nbsp;androidx.recyclierview.widget.RecyclerView.Adapter&lt;/b&gt;&lt;br&gt;&lt;/p&gt;&lt;p style=&quot;margin:0px;margin-left:4px;&quot;&gt;&lt;br&gt;&lt;/p&gt;" style="verticalAlign=top;align=left;overflow=fill;fontSize=12;fontFamily=Helvetica;html=1;whiteSpace=wrap;" vertex="1" parent="1">
          <mxGeometry x="170" y="30" width="310" height="40" as="geometry" />
        </mxCell>
        <mxCell id="RmF1gku8fQ2_ZBArnDE5-33" value="androidx" style="text;align=center;fontStyle=1;verticalAlign=middle;spacingLeft=3;spacingRight=3;strokeColor=none;rotatable=0;points=[[0,0.5],[1,0.5]];portConstraint=eastwest;html=1;" vertex="1" parent="1">
          <mxGeometry x="-190" width="80" height="26" as="geometry" />
        </mxCell>
        <mxCell id="RmF1gku8fQ2_ZBArnDE5-34" value="Extends" style="endArrow=block;endSize=16;endFill=0;html=1;rounded=0;entryX=0.5;entryY=1;entryDx=0;entryDy=0;exitX=0.5;exitY=0;exitDx=0;exitDy=0;" edge="1" parent="1" source="6uhysWcisIVeWNrSJ3Zi-1" target="RmF1gku8fQ2_ZBArnDE5-30">
          <mxGeometry width="160" relative="1" as="geometry">
            <mxPoint x="-20" y="260" as="sourcePoint" />
            <mxPoint x="140" y="260" as="targetPoint" />
          </mxGeometry>
        </mxCell>
        <mxCell id="RmF1gku8fQ2_ZBArnDE5-36" value="android" style="text;align=center;fontStyle=1;verticalAlign=middle;spacingLeft=3;spacingRight=3;strokeColor=none;rotatable=0;points=[[0,0.5],[1,0.5]];portConstraint=eastwest;html=1;" vertex="1" parent="1">
          <mxGeometry x="-345" y="750" width="80" height="26" as="geometry" />
        </mxCell>
        <mxCell id="RmF1gku8fQ2_ZBArnDE5-37" value="Use" style="endArrow=open;endSize=12;dashed=1;html=1;rounded=0;entryX=1;entryY=0.5;entryDx=0;entryDy=0;exitX=0;exitY=0.5;exitDx=0;exitDy=0;" edge="1" parent="1" source="6uhysWcisIVeWNrSJ3Zi-5" target="RmF1gku8fQ2_ZBArnDE5-22">
          <mxGeometry width="160" relative="1" as="geometry">
            <mxPoint x="190" y="910" as="sourcePoint" />
            <mxPoint x="350" y="910" as="targetPoint" />
          </mxGeometry>
        </mxCell>
        <mxCell id="RmF1gku8fQ2_ZBArnDE5-38" value="Use" style="endArrow=open;endSize=12;dashed=1;html=1;rounded=0;entryX=1;entryY=0.5;entryDx=0;entryDy=0;exitX=0;exitY=0.5;exitDx=0;exitDy=0;" edge="1" parent="1" source="6uhysWcisIVeWNrSJ3Zi-5" target="RmF1gku8fQ2_ZBArnDE5-23">
          <mxGeometry width="160" relative="1" as="geometry">
            <mxPoint x="190" y="910" as="sourcePoint" />
            <mxPoint x="350" y="910" as="targetPoint" />
          </mxGeometry>
        </mxCell>
        <mxCell id="RmF1gku8fQ2_ZBArnDE5-39" value="Use" style="endArrow=open;endSize=12;dashed=1;html=1;rounded=0;entryX=1;entryY=0.5;entryDx=0;entryDy=0;exitX=0;exitY=0.5;exitDx=0;exitDy=0;" edge="1" parent="1" source="6uhysWcisIVeWNrSJ3Zi-4" target="6uhysWcisIVeWNrSJ3Zi-5">
          <mxGeometry width="160" relative="1" as="geometry">
            <mxPoint x="240" y="620" as="sourcePoint" />
            <mxPoint x="400" y="620" as="targetPoint" />
          </mxGeometry>
        </mxCell>
        <mxCell id="RmF1gku8fQ2_ZBArnDE5-40" value="Use" style="endArrow=open;endSize=12;dashed=1;html=1;rounded=0;exitX=0.5;exitY=0;exitDx=0;exitDy=0;entryX=0.5;entryY=1;entryDx=0;entryDy=0;" edge="1" parent="1" source="6uhysWcisIVeWNrSJ3Zi-4" target="6uhysWcisIVeWNrSJ3Zi-7">
          <mxGeometry width="160" relative="1" as="geometry">
            <mxPoint x="240" y="620" as="sourcePoint" />
            <mxPoint x="400" y="620" as="targetPoint" />
          </mxGeometry>
        </mxCell>
        <mxCell id="RmF1gku8fQ2_ZBArnDE5-41" value="Use" style="endArrow=open;endSize=12;dashed=1;html=1;rounded=0;exitX=1;exitY=0.5;exitDx=0;exitDy=0;entryX=0;entryY=0.75;entryDx=0;entryDy=0;" edge="1" parent="1" source="6uhysWcisIVeWNrSJ3Zi-7" target="RmF1gku8fQ2_ZBArnDE5-28">
          <mxGeometry width="160" relative="1" as="geometry">
            <mxPoint x="590" y="910" as="sourcePoint" />
            <mxPoint x="660" y="1025" as="targetPoint" />
          </mxGeometry>
        </mxCell>
        <mxCell id="RmF1gku8fQ2_ZBArnDE5-42" value="Use" style="endArrow=open;endSize=12;dashed=1;html=1;rounded=0;entryX=0;entryY=0.5;entryDx=0;entryDy=0;exitX=1;exitY=0.5;exitDx=0;exitDy=0;" edge="1" parent="1" source="6uhysWcisIVeWNrSJ3Zi-1" target="6uhysWcisIVeWNrSJ3Zi-2">
          <mxGeometry width="160" relative="1" as="geometry">
            <mxPoint x="320" y="360" as="sourcePoint" />
            <mxPoint x="480" y="360" as="targetPoint" />
          </mxGeometry>
        </mxCell>
        <mxCell id="RmF1gku8fQ2_ZBArnDE5-43" value="Use" style="endArrow=open;endSize=12;dashed=1;html=1;rounded=0;exitX=1;exitY=1;exitDx=0;exitDy=0;entryX=0;entryY=0;entryDx=0;entryDy=0;" edge="1" parent="1" source="6uhysWcisIVeWNrSJ3Zi-1" target="6uhysWcisIVeWNrSJ3Zi-7">
          <mxGeometry width="160" relative="1" as="geometry">
            <mxPoint x="560" y="460" as="sourcePoint" />
            <mxPoint x="720" y="460" as="targetPoint" />
          </mxGeometry>
        </mxCell>
        <mxCell id="RmF1gku8fQ2_ZBArnDE5-44" value="Use" style="endArrow=open;endSize=12;dashed=1;html=1;rounded=0;entryX=0;entryY=0.5;entryDx=0;entryDy=0;exitX=1;exitY=0.25;exitDx=0;exitDy=0;" edge="1" parent="1" source="RmF1gku8fQ2_ZBArnDE5-1" target="6uhysWcisIVeWNrSJ3Zi-1">
          <mxGeometry width="160" relative="1" as="geometry">
            <mxPoint x="-190" y="400" as="sourcePoint" />
            <mxPoint x="-30" y="400" as="targetPoint" />
          </mxGeometry>
        </mxCell>
        <mxCell id="RmF1gku8fQ2_ZBArnDE5-45" value="Use" style="endArrow=open;endSize=12;dashed=1;html=1;rounded=0;exitX=0.998;exitY=0.468;exitDx=0;exitDy=0;entryX=0;entryY=0;entryDx=0;entryDy=0;exitPerimeter=0;" edge="1" parent="1" source="RmF1gku8fQ2_ZBArnDE5-1" target="6uhysWcisIVeWNrSJ3Zi-7">
          <mxGeometry width="160" relative="1" as="geometry">
            <mxPoint x="30" y="460" as="sourcePoint" />
            <mxPoint x="190" y="460" as="targetPoint" />
          </mxGeometry>
        </mxCell>
        <mxCell id="RmF1gku8fQ2_ZBArnDE5-46" value="Use" style="endArrow=open;endSize=12;dashed=1;html=1;rounded=0;exitX=0.5;exitY=1;exitDx=0;exitDy=0;entryX=0.517;entryY=0.016;entryDx=0;entryDy=0;entryPerimeter=0;" edge="1" parent="1" source="RmF1gku8fQ2_ZBArnDE5-1" target="RmF1gku8fQ2_ZBArnDE5-36">
          <mxGeometry width="160" relative="1" as="geometry">
            <mxPoint x="-20" y="670" as="sourcePoint" />
            <mxPoint x="140" y="670" as="targetPoint" />
          </mxGeometry>
        </mxCell>
        <mxCell id="RmF1gku8fQ2_ZBArnDE5-47" value="" style="shape=folder;fontStyle=1;spacingTop=10;tabWidth=200;tabHeight=30;tabPosition=left;html=1;whiteSpace=wrap;" vertex="1" parent="1">
          <mxGeometry x="120" y="430" width="400" height="250" as="geometry" />
        </mxCell>
        <mxCell id="RmF1gku8fQ2_ZBArnDE5-48" value="com.example.remotecontrolapp" style="text;align=center;fontStyle=1;verticalAlign=middle;spacingLeft=3;spacingRight=3;strokeColor=none;rotatable=0;points=[[0,0.5],[1,0.5]];portConstraint=eastwest;html=1;" vertex="1" parent="1">
          <mxGeometry x="180" y="430" width="80" height="26" as="geometry" />
        </mxCell>
        <mxCell id="RmF1gku8fQ2_ZBArnDE5-49" value="&lt;b&gt;&amp;lt;interface&amp;gt;&lt;br&gt;OnItemClickedListener&lt;/b&gt;" style="html=1;whiteSpace=wrap;" vertex="1" parent="1">
          <mxGeometry x="320" y="470" width="150" height="50" as="geometry" />
        </mxCell>
        <mxCell id="RmF1gku8fQ2_ZBArnDE5-50" value="&lt;b&gt;&amp;lt;interface&amp;gt;&lt;br&gt;AsyncDataReceiver&lt;/b&gt;" style="html=1;whiteSpace=wrap;" vertex="1" parent="1">
          <mxGeometry x="155" y="610" width="150" height="50" as="geometry" />
        </mxCell>
        <mxCell id="RmF1gku8fQ2_ZBArnDE5-51" value="&lt;b&gt;&amp;lt;class&amp;gt;&lt;br&gt;Singleton&lt;/b&gt;" style="html=1;whiteSpace=wrap;" vertex="1" parent="1">
          <mxGeometry x="320" y="610" width="150" height="50" as="geometry" />
        </mxCell>
        <mxCell id="RmF1gku8fQ2_ZBArnDE5-52" value="Use" style="endArrow=open;endSize=12;dashed=1;html=1;rounded=0;exitX=0.75;exitY=1;exitDx=0;exitDy=0;entryX=0.5;entryY=0;entryDx=0;entryDy=0;" edge="1" parent="1" source="6uhysWcisIVeWNrSJ3Zi-1" target="RmF1gku8fQ2_ZBArnDE5-49">
          <mxGeometry width="160" relative="1" as="geometry">
            <mxPoint x="450" y="460" as="sourcePoint" />
            <mxPoint x="610" y="460" as="targetPoint" />
          </mxGeometry>
        </mxCell>
        <mxCell id="RmF1gku8fQ2_ZBArnDE5-53" value="Use" style="endArrow=open;endSize=12;dashed=1;html=1;rounded=0;exitX=0;exitY=0;exitDx=0;exitDy=0;entryX=0.5;entryY=1;entryDx=0;entryDy=0;" edge="1" parent="1" source="6uhysWcisIVeWNrSJ3Zi-4" target="RmF1gku8fQ2_ZBArnDE5-51">
          <mxGeometry width="160" relative="1" as="geometry">
            <mxPoint x="450" y="670" as="sourcePoint" />
            <mxPoint x="610" y="670" as="targetPoint" />
          </mxGeometry>
        </mxCell>
        <mxCell id="RmF1gku8fQ2_ZBArnDE5-54" value="Use" style="endArrow=open;endSize=12;dashed=1;html=1;rounded=0;exitX=0;exitY=0;exitDx=0;exitDy=0;entryX=0.5;entryY=1;entryDx=0;entryDy=0;" edge="1" parent="1" source="6uhysWcisIVeWNrSJ3Zi-4" target="RmF1gku8fQ2_ZBArnDE5-50">
          <mxGeometry width="160" relative="1" as="geometry">
            <mxPoint x="450" y="670" as="sourcePoint" />
            <mxPoint x="610" y="670" as="targetPoint" />
          </mxGeometry>
        </mxCell>
        <mxCell id="RmF1gku8fQ2_ZBArnDE5-55" value="Use" style="endArrow=open;endSize=12;dashed=1;html=1;rounded=0;exitX=1;exitY=0.75;exitDx=0;exitDy=0;entryX=0.5;entryY=0;entryDx=0;entryDy=0;" edge="1" parent="1" source="RmF1gku8fQ2_ZBArnDE5-1" target="RmF1gku8fQ2_ZBArnDE5-50">
          <mxGeometry x="-0.4668" y="21" width="160" relative="1" as="geometry">
            <mxPoint x="190" y="620" as="sourcePoint" />
            <mxPoint x="350" y="620" as="targetPoint" />
            <mxPoint as="offset" />
          </mxGeometry>
        </mxCell>
        <mxCell id="RmF1gku8fQ2_ZBArnDE5-56" value="" style="endArrow=open;endSize=12;dashed=1;html=1;rounded=0;exitX=1;exitY=0.75;exitDx=0;exitDy=0;entryX=0;entryY=0;entryDx=0;entryDy=0;" edge="1" parent="1" source="RmF1gku8fQ2_ZBArnDE5-1" target="RmF1gku8fQ2_ZBArnDE5-51">
          <mxGeometry x="-0.3769" y="10" width="160" relative="1" as="geometry">
            <mxPoint x="190" y="620" as="sourcePoint" />
            <mxPoint x="350" y="620" as="targetPoint" />
            <mxPoint as="offset" />
          </mxGeometry>
        </mxCell>
        <mxCell id="RmF1gku8fQ2_ZBArnDE5-57" value="&lt;b&gt;&amp;lt;class&amp;gt;&lt;br&gt;controller.RemoteView&lt;/b&gt;" style="html=1;whiteSpace=wrap;" vertex="1" parent="1">
          <mxGeometry x="155" y="470" width="150" height="50" as="geometry" />
        </mxCell>
        <mxCell id="RmF1gku8fQ2_ZBArnDE5-58" value="&lt;b&gt;&amp;lt;class&amp;gt;&lt;br&gt;controller.UdpClient&lt;/b&gt;" style="html=1;whiteSpace=wrap;" vertex="1" parent="1">
          <mxGeometry x="320" y="536" width="150" height="50" as="geometry" />
        </mxCell>
        <mxCell id="RmF1gku8fQ2_ZBArnDE5-59" value="" style="endArrow=open;endSize=12;dashed=1;html=1;rounded=0;exitX=1;exitY=0.75;exitDx=0;exitDy=0;entryX=0;entryY=0.5;entryDx=0;entryDy=0;" edge="1" parent="1" source="RmF1gku8fQ2_ZBArnDE5-1" target="RmF1gku8fQ2_ZBArnDE5-58">
          <mxGeometry x="-0.7905" y="18" width="160" relative="1" as="geometry">
            <mxPoint x="-50" y="540" as="sourcePoint" />
            <mxPoint x="520" y="500" as="targetPoint" />
            <mxPoint as="offset" />
          </mxGeometry>
        </mxCell>
        <mxCell id="RmF1gku8fQ2_ZBArnDE5-60" value="" style="endArrow=open;endSize=12;dashed=1;html=1;rounded=0;exitX=1;exitY=0.75;exitDx=0;exitDy=0;entryX=0;entryY=0.5;entryDx=0;entryDy=0;" edge="1" parent="1" source="RmF1gku8fQ2_ZBArnDE5-1" target="RmF1gku8fQ2_ZBArnDE5-57">
          <mxGeometry x="-0.035" y="47" width="160" relative="1" as="geometry">
            <mxPoint x="360" y="500" as="sourcePoint" />
            <mxPoint x="520" y="500" as="targetPoint" />
            <mxPoint as="offset" />
          </mxGeometry>
        </mxCell>
      </root>
    </mxGraphModel>
  </diagram>
</mxfile>
